<?xml version="1.0" encoding="UTF-8" standalone="no"?><!DOCTYPE svg PUBLIC "-//W3C//DTD SVG 1.1//EN" "http://www.w3.org/Graphics/SVG/1.1/DTD/svg11.dtd"><svg width="100%" height="100%" viewBox="0 0 228 313" version="1.1" xmlns="http://www.w3.org/2000/svg" xmlns:xlink="http://www.w3.org/1999/xlink" xml:space="preserve" xmlns:serif="http://www.serif.com/" style="fill-rule:evenodd;clip-rule:evenodd;stroke-linejoin:round;stroke-miterlimit:2;"><path d="M164.519,47.645l0.004,0.004l-100.916,100.917c-12.925,12.872 -20.928,30.682 -20.928,50.347c-0,20.586 8.772,39.14 22.778,52.124c12.682,11.756 29.654,18.946 48.292,18.946c19.664,-0 37.474,-8.004 50.346,-20.929c12.804,-12.856 20.724,-30.581 20.724,-50.141c-0,-2.383 -0.118,-4.738 -0.347,-7.06c-2.894,0.466 -5.861,0.709 -8.885,0.709c-2.288,-0 -4.544,-0.139 -6.76,-0.409c0.27,2.216 0.409,4.472 0.409,6.76c-0,15.26 -6.174,29.089 -16.157,39.124c-10.052,10.105 -23.966,16.363 -39.33,16.363c-14.338,-0 -27.413,-5.45 -37.265,-14.389l61.838,-61.838c-9.619,-8.728 -16.165,-20.783 -17.814,-34.339c-0.27,-2.216 -0.409,-4.472 -0.409,-6.759c0,-3.024 0.243,-5.992 0.709,-8.886c2.604,-16.146 12.184,-29.97 25.546,-38.275c8.491,-5.278 18.508,-8.326 29.233,-8.326c14.337,-0 27.412,5.449 37.264,14.389c1.339,1.215 2.618,2.494 3.833,3.833l-20.625,20.626c12.22,12.812 21.483,28.469 26.688,45.871c3.09,10.331 4.75,21.276 4.75,32.606c0,31.337 -12.7,59.732 -33.229,80.314c-20.598,20.65 -49.078,33.434 -80.519,33.434c-30.416,0 -58.059,-11.963 -78.478,-31.438c-21.726,-20.721 -35.271,-49.946 -35.271,-82.31c-0,-31.442 12.785,-59.922 33.435,-80.52l100.916,-100.916l0.088,0.087l11.338,-11.338c8.301,-8.301 21.78,-8.301 30.081,-0c8.301,8.301 8.301,21.779 -0,30.08l-11.339,11.339Zm17.833,47.348c-3.824,-0 -6.929,3.104 -6.929,6.928c0,3.824 3.105,6.929 6.929,6.929c3.824,-0 6.928,-3.105 6.928,-6.929c0,-3.824 -3.104,-6.928 -6.928,-6.928Z" style="fill:#fbfbfb;"/></svg>