<?xml version="1.0" encoding="UTF-8" standalone="no"?><!DOCTYPE svg PUBLIC "-//W3C//DTD SVG 1.1//EN" "http://www.w3.org/Graphics/SVG/1.1/DTD/svg11.dtd"><svg width="100%" height="100%" viewBox="0 0 774 323" version="1.1" xmlns="http://www.w3.org/2000/svg" xmlns:xlink="http://www.w3.org/1999/xlink" xml:space="preserve" xmlns:serif="http://www.serif.com/" style="fill-rule:evenodd;clip-rule:evenodd;stroke-linejoin:round;stroke-miterlimit:2;"><path d="M169.858,49.191l0.005,0.005l-104.192,104.191c-13.344,13.29 -21.607,31.678 -21.607,51.981c-0,21.254 9.056,40.411 23.518,53.816c13.092,12.137 30.615,19.56 49.858,19.56c20.303,0 38.69,-8.263 51.981,-21.607c13.219,-13.274 21.395,-31.574 21.395,-51.769c0,-2.46 -0.121,-4.891 -0.358,-7.289c-2.987,0.482 -6.051,0.732 -9.173,0.732c-2.362,-0 -4.691,-0.143 -6.979,-0.422c0.279,2.288 0.422,4.617 0.422,6.979c-0,15.755 -6.374,30.033 -16.682,40.394c-10.378,10.432 -24.743,16.894 -40.606,16.894c-14.803,-0 -28.302,-5.627 -38.474,-14.857l63.845,-63.844c-9.931,-9.011 -16.69,-21.457 -18.392,-35.453c-0.279,-2.288 -0.422,-4.617 -0.422,-6.979c-0,-3.122 0.25,-6.186 0.732,-9.173c2.688,-16.671 12.579,-30.944 26.375,-39.518c8.766,-5.449 19.109,-8.597 30.181,-8.597c14.803,0 28.302,5.627 38.473,14.856c1.383,1.255 2.704,2.576 3.958,3.958l-21.294,21.295c12.617,13.228 22.18,29.393 27.554,47.36c3.19,10.666 4.904,21.966 4.904,33.664c-0,32.354 -13.112,61.671 -34.308,82.92c-21.266,21.32 -50.67,34.52 -83.132,34.52c-31.403,-0 -59.943,-12.352 -81.024,-32.458c-22.431,-21.394 -36.416,-51.568 -36.416,-84.982c0,-32.462 13.2,-61.866 34.52,-83.132l104.191,-104.192l0.09,0.09l11.707,-11.706c8.57,-8.571 22.486,-8.571 31.057,-0c8.57,8.57 8.57,22.486 -0,31.056l-11.707,11.707Zm18.412,48.885c-3.948,-0 -7.154,3.205 -7.154,7.153c0,3.948 3.206,7.153 7.154,7.153c3.948,0 7.153,-3.205 7.153,-7.153c-0,-3.948 -3.205,-7.153 -7.153,-7.153Z" style="fill:#fbfbfb;"/><path d="M375.787,166.342c10.01,0 17.861,-1.815 23.553,-5.447c5.692,-3.631 8.538,-9.273 8.538,-16.928l-0,-0.589c-0,-6.87 -2.65,-12.316 -7.95,-16.34c-5.299,-4.023 -13.837,-6.035 -25.613,-6.035l-22.405,-0c-16.569,-0 -30,13.431 -30,30c-0,8.427 -0,15.339 -0,15.339l53.877,0Zm-12.071,-83.024c10.01,0 17.959,-1.717 23.847,-5.152c5.888,-3.435 8.833,-8.979 8.833,-16.634l-0,-0.589c-0,-6.87 -2.552,-12.12 -7.655,-15.751c-5.103,-3.631 -12.464,-5.447 -22.081,-5.447l-14.75,0c-16.569,0 -30,13.432 -30,30l-0,13.573l41.806,0Zm-85.968,-83.318l95.683,0c23.75,0 41.709,6.084 53.878,18.253c9.421,9.422 14.131,21.1 14.131,35.035l0,0.589c0,5.888 -0.736,11.09 -2.208,15.604c-1.472,4.514 -3.435,8.587 -5.888,12.218c-2.453,3.631 -5.299,6.82 -8.538,9.568c-3.238,2.748 -6.722,5.103 -10.451,7.066c11.972,4.514 21.393,10.648 28.263,18.401c6.87,7.753 10.304,18.499 10.304,32.238l0,0.589c0,9.421 -1.815,17.664 -5.446,24.73c-3.631,7.066 -8.833,12.954 -15.604,17.665c-6.771,4.71 -14.917,8.243 -24.436,10.599c-9.519,2.355 -20.069,3.533 -31.649,3.533l-98.039,-0l-0,-206.088Z" style="fill:#fbfbfb;fill-rule:nonzero;"/><g><path d="M462.672,51.262l12.331,-0c16.569,-0 30,13.431 30,30c0,27.333 0,67.492 0,94.826c0,16.568 -13.431,30 -30,30c-6.937,-0 -12.331,-0 -12.331,-0l-0,-154.826Z" style="fill:#fbfbfb;fill-rule:nonzero;"/><path d="M462.672,0l21.167,0c11.689,0 21.164,9.475 21.164,21.164l0,0.003c0,11.689 -9.475,21.164 -21.164,21.164l-21.167,0l-0,-42.331Z" style="fill:#fbfbfb;fill-rule:nonzero;"/></g><path d="M523.291,51.262l13.082,-0c16.569,-0 30,13.431 30,30l0,3.516c4.346,-10.393 10.298,-18.707 17.857,-24.942c7.558,-6.236 17.762,-9.07 30.611,-8.503l-0,42.8c-0,0.601 -0.239,1.177 -0.664,1.602c-0.425,0.425 -1.001,0.664 -1.602,0.664c-0.001,-0 -0.002,-0 -0.002,-0c-14.361,-0 -25.651,4.346 -33.87,13.038c-8.22,8.692 -12.33,22.202 -12.33,40.531l0,26.12c0,16.568 -13.431,30 -30,30l-13.082,-0l0,-154.826Z" style="fill:#fbfbfb;fill-rule:nonzero;"/><path d="M689.46,170.161c5.013,0 9.701,-0.974 14.064,-2.924c4.363,-1.949 8.169,-4.734 11.418,-8.355c3.249,-3.62 5.849,-7.983 7.798,-13.089c1.95,-5.106 2.924,-10.722 2.924,-16.849l0,-0.557c0,-6.127 -0.974,-11.743 -2.924,-16.849c-1.949,-5.106 -4.549,-9.469 -7.798,-13.089c-3.249,-3.621 -7.055,-6.406 -11.418,-8.355c-4.363,-1.95 -9.051,-2.925 -14.064,-2.925c-5.013,0 -9.701,0.975 -14.064,2.925c-4.363,1.949 -8.216,4.734 -11.558,8.355c-3.342,3.62 -5.988,7.937 -7.937,12.95c-1.949,5.013 -2.924,10.675 -2.924,16.988l-0,0.557c-0,6.127 0.975,11.743 2.924,16.849c1.949,5.106 4.595,9.469 7.937,13.089c3.342,3.621 7.195,6.406 11.558,8.355c4.363,1.95 9.051,2.924 14.064,2.924Zm-5.268,35.927c-8.726,-0 -17.174,-1.671 -25.343,-5.013c-8.169,-3.342 -15.41,-8.309 -21.723,-14.9c-6.313,-6.591 -11.372,-14.667 -15.178,-24.229c-3.806,-9.562 -5.709,-20.563 -5.709,-33.002l-0,-0.557c-0,-12.44 1.903,-23.44 5.709,-33.002c3.806,-9.562 8.819,-17.638 15.039,-24.229c6.22,-6.591 13.414,-11.558 21.583,-14.9c8.169,-3.342 16.71,-5.013 25.622,-5.013c11.325,0 20.655,2.228 27.989,6.684c7.334,4.456 13.507,9.655 18.52,15.596l-0,-73.523l12.331,0c16.569,0 30,13.431 30,30l0,143.303c0,16.568 -13.431,30 -30,30c-6.937,-0 -12.331,-0 -12.331,-0l-0,-21.445c-5.199,7.056 -11.465,12.858 -18.799,17.406c-7.333,4.549 -16.57,6.824 -27.71,6.824Z" style="fill:#fbfbfb;fill-rule:nonzero;"/><g><path d="M311.076,322.575c-6.526,-0 -12.488,-1.068 -17.888,-3.205c-5.399,-2.136 -10.546,-5.419 -15.44,-9.847c-0,0 0.026,-0.031 0.076,-0.089c2.978,-3.525 8.125,-4.262 11.973,-1.715c2.17,1.529 4.378,2.757 6.596,3.727c4.35,1.903 9.361,2.855 15.032,2.855c5.516,0 9.925,-1.301 13.227,-3.904c3.301,-2.602 4.952,-5.923 4.952,-9.963l0,-0.233c0,-1.865 -0.311,-3.554 -0.932,-5.069c-0.622,-1.515 -1.709,-2.894 -3.263,-4.137c-1.554,-1.243 -3.71,-2.37 -6.467,-3.379c-2.758,-1.01 -6.274,-1.981 -10.546,-2.914c-4.662,-1.01 -8.721,-2.175 -12.178,-3.496c-3.457,-1.32 -6.312,-2.913 -8.565,-4.777c-2.253,-1.865 -3.923,-4.04 -5.011,-6.526c-1.087,-2.486 -1.631,-5.399 -1.631,-8.74l-0,-0.233c-0,-3.185 0.66,-6.137 1.981,-8.856c1.321,-2.719 3.185,-5.069 5.593,-7.05c2.409,-1.981 5.244,-3.535 8.507,-4.662c3.263,-1.126 6.837,-1.689 10.721,-1.689c5.982,-0 11.206,0.835 15.673,2.505c4.467,1.67 8.798,4.176 12.993,7.516c0,0 -0.062,0.084 -0.174,0.232c-2.718,3.603 -7.665,4.67 -11.626,2.508c-1.658,-0.994 -3.346,-1.775 -5.038,-2.39c-3.846,-1.398 -7.866,-2.098 -12.061,-2.098c-5.361,0 -9.595,1.263 -12.702,3.788c-3.107,2.524 -4.661,5.651 -4.661,9.38l-0,0.233c-0,1.943 0.311,3.671 0.932,5.186c0.622,1.515 1.748,2.913 3.379,4.195c1.632,1.282 3.885,2.447 6.759,3.496c2.875,1.049 6.565,2.039 11.071,2.972c9.089,2.019 15.789,4.816 20.101,8.39c4.312,3.573 6.468,8.468 6.468,14.683l-0,0.233c-0,3.496 -0.7,6.661 -2.098,9.497c-1.398,2.835 -3.321,5.263 -5.768,7.283c-2.447,2.02 -5.38,3.574 -8.798,4.661c-3.419,1.088 -7.148,1.632 -11.187,1.632Z" style="fill:#fbfbfb;fill-rule:nonzero;"/><path d="M403.485,314.301c4.661,0 8.953,-0.874 12.877,-2.622c3.923,-1.748 7.283,-4.137 10.079,-7.167c2.797,-3.029 4.992,-6.564 6.584,-10.604c1.593,-4.04 2.389,-8.39 2.389,-13.051l0,-0.233c0,-4.662 -0.796,-9.031 -2.389,-13.11c-1.592,-4.079 -3.826,-7.633 -6.7,-10.663c-2.874,-3.029 -6.273,-5.438 -10.196,-7.224c-3.924,-1.787 -8.216,-2.681 -12.877,-2.681c-4.661,0 -8.954,0.874 -12.877,2.622c-3.923,1.748 -7.283,4.137 -10.08,7.167c-2.796,3.03 -4.991,6.564 -6.584,10.604c-1.592,4.04 -2.388,8.39 -2.388,13.052l-0,0.233c-0,4.661 0.796,9.031 2.388,13.109c1.593,4.079 3.826,7.633 6.701,10.663c2.874,3.03 6.273,5.438 10.196,7.225c3.924,1.787 8.216,2.68 12.877,2.68Zm-0.233,8.507c-6.215,-0 -11.867,-1.127 -16.955,-3.38c-5.089,-2.253 -9.459,-5.302 -13.11,-9.147c-3.651,-3.846 -6.467,-8.313 -8.448,-13.401c-1.981,-5.089 -2.972,-10.43 -2.972,-16.023l0,-0.233c0,-5.594 1.01,-10.954 3.03,-16.082c2.02,-5.127 4.855,-9.613 8.507,-13.459c3.651,-3.845 8.04,-6.914 13.167,-9.206c5.128,-2.292 10.799,-3.437 17.014,-3.437c6.215,-0 11.867,1.126 16.955,3.379c5.089,2.253 9.459,5.302 13.11,9.148c3.651,3.845 6.467,8.312 8.448,13.401c1.981,5.088 2.972,10.429 2.972,16.023c0.078,0.077 0.078,0.155 -0,0.233c-0,5.593 -1.01,10.954 -3.03,16.081c-2.02,5.127 -4.855,9.614 -8.507,13.459c-3.651,3.846 -8.04,6.914 -13.168,9.206c-5.127,2.292 -10.798,3.438 -17.013,3.438Z" style="fill:#fbfbfb;fill-rule:nonzero;"/><path d="M508.771,322.808c-5.904,-0 -11.342,-1.088 -16.314,-3.263c-4.972,-2.175 -9.284,-5.147 -12.935,-8.915c-3.652,-3.768 -6.507,-8.215 -8.565,-13.342c-2.059,-5.128 -3.088,-10.605 -3.088,-16.431l-0,-0.233c-0,-5.749 1.029,-11.187 3.088,-16.315c2.058,-5.127 4.913,-9.613 8.565,-13.459c3.651,-3.845 8.001,-6.875 13.051,-9.089c5.05,-2.214 10.566,-3.321 16.547,-3.321c3.729,-0 7.089,0.31 10.08,0.932c2.991,0.621 5.769,1.495 8.332,2.622c2.564,1.126 4.933,2.486 7.109,4.078c2.175,1.593 4.272,3.36 6.292,5.303c0,-0 -0.162,0.174 -0.436,0.468c-3.131,3.363 -8.25,3.934 -12.046,1.344c-1.625,-1.16 -3.316,-2.182 -5.056,-3.094c-4,-2.098 -8.798,-3.147 -14.391,-3.147c-4.506,0 -8.682,0.855 -12.527,2.564c-3.846,1.709 -7.186,4.079 -10.022,7.108c-2.835,3.03 -5.049,6.584 -6.642,10.663c-1.593,4.079 -2.389,8.448 -2.389,13.11l0,0.233c0,4.739 0.796,9.147 2.389,13.226c1.593,4.078 3.807,7.633 6.642,10.662c2.836,3.03 6.176,5.419 10.022,7.167c3.845,1.748 8.021,2.622 12.527,2.622c5.593,0 10.41,-1.029 14.45,-3.088c1.986,-1.012 3.954,-2.227 5.903,-3.643c3.7,-2.643 8.764,-2.248 12.011,0.936c0.031,-0.032 0.031,-0.031 0.031,-0.031c-2.097,2.175 -4.292,4.136 -6.584,5.884c-2.291,1.748 -4.758,3.244 -7.399,4.487c-2.642,1.243 -5.477,2.214 -8.507,2.913c-3.03,0.699 -6.409,1.049 -10.138,1.049Z" style="fill:#fbfbfb;fill-rule:nonzero;"/><path d="M571.431,239.838l0.002,-0c2.441,-0 4.782,0.97 6.509,2.696c1.726,1.726 2.695,4.067 2.695,6.508c0,15.697 0,47.466 0,63.163c0,2.441 -0.969,4.783 -2.695,6.509c-1.727,1.726 -4.068,2.695 -6.509,2.695c-0.001,0 -0.002,0 -0.002,0l0,-81.571Z" style="fill:#fbfbfb;fill-rule:nonzero;"/><path d="M669.767,291.578l-18.528,-41.602l-18.645,41.602l37.173,-0Zm-22.723,-52.323c-0,0 1.225,0 2.752,0c3.574,0 6.818,2.093 8.291,5.349c6.236,13.782 22.906,50.624 30.67,67.781c0.895,1.978 0.724,4.274 -0.452,6.098c-1.177,1.824 -3.199,2.926 -5.37,2.926c0,0 0,0 0,0l-9.555,-21.558l-44.399,0c0,0 -3.114,6.941 -5.808,12.947c-2.351,5.24 -7.559,8.611 -13.303,8.611c0,0 0,0 0,0l37.174,-82.154Z" style="fill:#fbfbfb;fill-rule:nonzero;"/><path d="M717.913,239.838l0.002,-0c5.084,-0 9.204,4.121 9.204,9.204c0,19.636 0,63.861 0,63.861l37.407,-0c4.698,-0 8.506,3.808 8.506,8.506c0,0 0,0 0,0l-55.119,0l0,-81.571Z" style="fill:#fbfbfb;fill-rule:nonzero;"/></g></svg>